<mxfile host="app.diagrams.net" modified="2024-06-01T05:23:09.773Z" agent="Mozilla/5.0 (Windows NT 10.0; Win64; x64) AppleWebKit/537.36 (KHTML, like Gecko) Chrome/125.0.0.0 Safari/537.36 Edg/125.0.0.0" etag="5ecxevaxEXQ8IJ5vIOIb" version="24.4.13" type="github">
  <diagram name="Страница — 1" id="YFiZ73UoZkWgJVXwLamv">
    <mxGraphModel dx="771" dy="482" grid="1" gridSize="10" guides="1" tooltips="1" connect="1" arrows="1" fold="1" page="1" pageScale="1" pageWidth="827" pageHeight="1169" background="none" math="0" shadow="1">
      <root>
        <mxCell id="0" />
        <mxCell id="1" parent="0" />
        <mxCell id="fKuJ6q7cA0WwtjZvXfqB-1" value="Accounting" style="verticalLabelPosition=bottom;html=1;verticalAlign=top;align=center;strokeColor=none;fillColor=#00BEF2;shape=mxgraph.azure.computer;pointerEvents=1;" parent="1" vertex="1">
          <mxGeometry x="240" y="30" width="50" height="45" as="geometry" />
        </mxCell>
        <mxCell id="fKuJ6q7cA0WwtjZvXfqB-2" value="Seller" style="verticalLabelPosition=bottom;html=1;verticalAlign=top;align=center;strokeColor=none;fillColor=#00BEF2;shape=mxgraph.azure.computer;pointerEvents=1;rotation=0;" parent="1" vertex="1">
          <mxGeometry x="400" y="30" width="50" height="45" as="geometry" />
        </mxCell>
        <mxCell id="fKuJ6q7cA0WwtjZvXfqB-3" value="Boss" style="verticalLabelPosition=bottom;html=1;verticalAlign=top;align=center;strokeColor=none;fillColor=#00BEF2;shape=mxgraph.azure.computer;pointerEvents=1;" parent="1" vertex="1">
          <mxGeometry x="320" y="30" width="50" height="45" as="geometry" />
        </mxCell>
        <mxCell id="41rrF7d5x6TQtbtXSW9o-1" value="Copier" style="fontColor=#0066CC;verticalAlign=top;verticalLabelPosition=bottom;labelPosition=center;align=center;html=1;outlineConnect=0;fillColor=#CCCCCC;strokeColor=#6881B3;gradientColor=none;gradientDirection=north;strokeWidth=2;shape=mxgraph.networks.copier;" vertex="1" parent="1">
          <mxGeometry x="10" y="120" width="100" height="100" as="geometry" />
        </mxCell>
        <mxCell id="41rrF7d5x6TQtbtXSW9o-8" style="edgeStyle=orthogonalEdgeStyle;curved=1;rounded=0;orthogonalLoop=1;jettySize=auto;html=1;exitX=0.13;exitY=0.5;exitDx=0;exitDy=0;exitPerimeter=0;strokeColor=default;align=center;verticalAlign=middle;fontFamily=Helvetica;fontSize=11;fontColor=default;labelBackgroundColor=default;endArrow=classic;" edge="1" parent="1" source="41rrF7d5x6TQtbtXSW9o-6" target="41rrF7d5x6TQtbtXSW9o-7">
          <mxGeometry relative="1" as="geometry" />
        </mxCell>
        <mxCell id="41rrF7d5x6TQtbtXSW9o-9" style="edgeStyle=orthogonalEdgeStyle;curved=1;rounded=0;orthogonalLoop=1;jettySize=auto;html=1;exitX=0.5;exitY=0.71;exitDx=0;exitDy=0;exitPerimeter=0;strokeColor=default;align=center;verticalAlign=middle;fontFamily=Helvetica;fontSize=11;fontColor=default;labelBackgroundColor=default;endArrow=classic;" edge="1" parent="1" source="41rrF7d5x6TQtbtXSW9o-6" target="41rrF7d5x6TQtbtXSW9o-1">
          <mxGeometry relative="1" as="geometry" />
        </mxCell>
        <mxCell id="41rrF7d5x6TQtbtXSW9o-6" value="Router" style="sketch=0;aspect=fixed;pointerEvents=1;shadow=0;dashed=0;html=1;strokeColor=none;labelPosition=center;verticalLabelPosition=bottom;verticalAlign=top;align=center;fillColor=#00188D;shape=mxgraph.mscae.enterprise.router;fontFamily=Helvetica;fontSize=11;fontColor=default;labelBackgroundColor=default;" vertex="1" parent="1">
          <mxGeometry x="120" y="43" width="50" height="39" as="geometry" />
        </mxCell>
        <mxCell id="41rrF7d5x6TQtbtXSW9o-7" value="Internet" style="image;aspect=fixed;perimeter=ellipsePerimeter;html=1;align=center;shadow=0;dashed=0;spacingTop=3;image=img/lib/active_directory/internet_cloud.svg;fontFamily=Helvetica;fontSize=11;fontColor=default;labelBackgroundColor=default;" vertex="1" parent="1">
          <mxGeometry x="10" y="9" width="50" height="31.5" as="geometry" />
        </mxCell>
        <mxCell id="41rrF7d5x6TQtbtXSW9o-11" style="edgeStyle=orthogonalEdgeStyle;curved=1;rounded=0;orthogonalLoop=1;jettySize=auto;html=1;exitX=0.5;exitY=0;exitDx=0;exitDy=0;exitPerimeter=0;entryX=1;entryY=0;entryDx=0;entryDy=0;entryPerimeter=0;strokeColor=default;align=center;verticalAlign=middle;fontFamily=Helvetica;fontSize=11;fontColor=default;labelBackgroundColor=default;endArrow=classic;" edge="1" parent="1" source="fKuJ6q7cA0WwtjZvXfqB-1" target="41rrF7d5x6TQtbtXSW9o-6">
          <mxGeometry relative="1" as="geometry" />
        </mxCell>
        <mxCell id="41rrF7d5x6TQtbtXSW9o-12" style="edgeStyle=orthogonalEdgeStyle;curved=1;rounded=0;orthogonalLoop=1;jettySize=auto;html=1;exitX=0.5;exitY=0;exitDx=0;exitDy=0;exitPerimeter=0;entryX=1;entryY=0;entryDx=0;entryDy=0;entryPerimeter=0;strokeColor=default;align=center;verticalAlign=middle;fontFamily=Helvetica;fontSize=11;fontColor=default;labelBackgroundColor=default;endArrow=classic;" edge="1" parent="1" source="fKuJ6q7cA0WwtjZvXfqB-3" target="41rrF7d5x6TQtbtXSW9o-6">
          <mxGeometry relative="1" as="geometry" />
        </mxCell>
        <mxCell id="41rrF7d5x6TQtbtXSW9o-13" style="edgeStyle=orthogonalEdgeStyle;curved=1;rounded=0;orthogonalLoop=1;jettySize=auto;html=1;exitX=0.5;exitY=0;exitDx=0;exitDy=0;exitPerimeter=0;entryX=1;entryY=0;entryDx=0;entryDy=0;entryPerimeter=0;strokeColor=default;align=center;verticalAlign=middle;fontFamily=Helvetica;fontSize=11;fontColor=default;labelBackgroundColor=default;endArrow=classic;" edge="1" parent="1" source="fKuJ6q7cA0WwtjZvXfqB-2" target="41rrF7d5x6TQtbtXSW9o-6">
          <mxGeometry relative="1" as="geometry" />
        </mxCell>
      </root>
    </mxGraphModel>
  </diagram>
</mxfile>
